<svg width="120" height="36" viewBox="0 0 120 36" fill="none" xmlns="http://www.w3.org/2000/svg">
<g id="ReeBot">
<path d="M102.54 6.37498L104.827 14.0893L110.874 8.04313L110.832 8.03275L110.572 7.15368L108.544 0.314942L102.502 6.36114L102.54 6.37152V6.37498Z" fill="#FB275D"/>
<path d="M111.971 9.17139L111.967 9.16792L111.957 9.12986L105.914 15.1726L113.625 17.4602H113.628L113.642 17.5018L119.685 11.4556L111.971 9.17139Z" fill="#FFCC00"/>
<path d="M112.327 7.67628L113.165 7.922L120 9.95009L117.975 3.11135L117.726 2.27381L116.889 2.02809L110.05 0L112.327 7.67628Z" fill="#287DF9"/>
<path d="M11.151 35.1005L6.60341 26.8462H5.32633V35.1005H0V13.2345H8.93952C10.4582 13.1912 11.9662 13.5003 13.3453 14.1378C14.4829 14.669 15.4335 15.5315 16.0724 16.6123C16.6792 17.6801 16.991 18.8901 16.9757 20.1182C16.9928 21.514 16.5622 22.8785 15.7471 24.0117C14.8448 25.2086 13.564 26.0649 12.1132 26.4413L17.1592 35.0935L11.151 35.1005ZM5.32633 23.0773H8.62804C9.60401 23.0773 10.3354 22.8385 10.8223 22.3609C11.0766 22.0916 11.2729 21.7729 11.3992 21.4247C11.5254 21.0764 11.5787 20.706 11.556 20.3363C11.5753 19.9763 11.52 19.6162 11.3938 19.2786C11.2675 18.9409 11.073 18.6329 10.8223 18.3739C10.3354 17.8917 9.60401 17.6506 8.62804 17.6506H5.32633V23.0773Z" fill="#181B18"/>
<path d="M35.8204 27.6872H23.766C23.782 28.6147 24.1537 29.5006 24.8043 30.1617C25.4161 30.7329 26.2276 31.0411 27.0643 31.0201C28.3933 31.0201 29.3162 30.4594 29.833 29.3381H35.5089C35.2222 30.4711 34.684 31.5251 33.9342 32.4217C33.1618 33.3467 32.1873 34.082 31.0859 34.5709C29.8798 35.1034 28.5729 35.369 27.2546 35.3496C25.6711 35.3795 24.106 35.0055 22.707 34.2629C21.3895 33.5475 20.3076 32.4656 19.5922 31.1481C18.8188 29.6921 18.4327 28.0618 18.4709 26.4136C18.4321 24.7674 18.812 23.1383 19.5749 21.6791C20.2857 20.3582 21.3688 19.2751 22.6897 18.5643C24.0986 17.818 25.6744 17.4428 27.2685 17.4741C28.8335 17.4425 30.3811 17.8068 31.7677 18.5331C33.0591 19.2243 34.1238 20.2734 34.834 21.5545C35.5955 22.9583 35.9773 24.5366 35.9415 26.1333C35.9309 26.6531 35.8904 27.172 35.8204 27.6872ZM30.456 24.7281C30.4737 24.3179 30.3989 23.9089 30.2372 23.5315C30.0754 23.1541 29.8308 22.8178 29.5215 22.5478C28.8701 21.9976 28.0376 21.709 27.1854 21.7379C26.36 21.7116 25.5536 21.9887 24.9185 22.5166C24.2793 23.0878 23.8748 23.8758 23.7833 24.7281H30.456Z" fill="#181B18"/>
<path d="M54.2289 27.6872H42.1746C42.1905 28.6147 42.5622 29.5006 43.2129 30.1617C43.8247 30.7329 44.6362 31.0411 45.4728 31.0201C46.8018 31.0201 47.7247 30.4594 48.2416 29.3381H53.9105C53.6238 30.4711 53.0856 31.5251 52.3358 32.4217C51.5644 33.3463 50.5912 34.0816 49.491 34.5709C48.2849 35.1034 46.978 35.369 45.6597 35.3496C44.0773 35.3789 42.5135 35.005 41.1156 34.2629C39.7981 33.5475 38.7162 32.4656 38.0008 31.1481C37.2274 29.6921 36.8412 28.0618 36.8794 26.4136C36.8407 24.7674 37.2206 23.1383 37.9834 21.6791C38.6943 20.3582 39.7774 19.2751 41.0983 18.5643C42.5072 17.818 44.083 17.4428 45.677 17.4741C47.242 17.4425 48.7896 17.8068 50.1762 18.5331C51.4677 19.2243 52.5324 20.2734 53.2426 21.5545C53.9987 22.9586 54.3757 24.5356 54.3362 26.1298C54.3303 26.6506 54.2945 27.1706 54.2289 27.6872ZM48.8715 24.7281C48.8892 24.3179 48.8144 23.9089 48.6527 23.5315C48.4909 23.1541 48.2463 22.8178 47.937 22.5478C47.2856 21.9976 46.4531 21.709 45.6009 21.7379C44.7778 21.7134 43.9742 21.9903 43.3409 22.5166C42.7081 23.0906 42.31 23.8783 42.2231 24.7281H48.8715Z" fill="#181B18"/>
<path d="M72.6375 25.7699C73.3974 26.7318 73.8043 27.9254 73.79 29.1512C73.79 30.9785 73.1509 32.4263 71.8726 33.4946C70.5944 34.5629 68.8144 35.0981 66.5325 35.1005H56.347V13.2345H66.1898C68.4117 13.2345 70.1503 13.7432 71.4054 14.7607C72.0236 15.2564 72.5165 15.8907 72.8442 16.6122C73.1719 17.3336 73.3251 18.1221 73.2916 18.9138C73.334 20.0682 72.9757 21.2017 72.2776 22.1221C71.587 22.9764 70.6449 23.5915 69.585 23.8802C70.7984 24.1179 71.8836 24.7897 72.6375 25.7699ZM61.6733 22.0805H65.1619C65.8779 22.1273 66.5878 21.9229 67.1693 21.5026C67.4066 21.2916 67.5924 21.0291 67.7124 20.7351C67.8324 20.4411 67.8834 20.1235 67.8615 19.8067C67.883 19.4874 67.8319 19.1674 67.712 18.8707C67.5921 18.574 67.4066 18.3083 67.1693 18.0936C66.5919 17.6638 65.8801 17.4539 65.1619 17.5018H61.6733V22.0805ZM67.6676 30.1929C67.9166 29.9758 68.1123 29.7043 68.2396 29.3994C68.3668 29.0945 68.4222 28.7645 68.4014 28.4348C68.4183 28.0954 68.3583 27.7567 68.2259 27.4438C68.0934 27.131 67.8919 26.8521 67.6365 26.6282C67.0391 26.1618 66.2922 25.9293 65.5357 25.9741H61.6733V30.802H65.598C66.3381 30.8487 67.0709 30.633 67.6676 30.1929Z" fill="#181B18"/>
<path d="M79.4105 34.2629C78.0662 33.5514 76.9531 32.4708 76.2022 31.1481C75.3996 29.7016 74.997 28.0674 75.0359 26.4136C75.0015 24.7625 75.4103 23.1324 76.2195 21.6929C76.9807 20.3674 78.1046 19.2867 79.4589 18.5781C80.8899 17.8613 82.4684 17.488 84.0689 17.488C85.6694 17.488 87.2478 17.8613 88.6788 18.5781C90.0332 19.2867 91.1571 20.3674 91.9182 21.6929C92.7257 23.1318 93.1332 24.7606 93.0984 26.4101C93.1322 28.0622 92.7171 29.6925 91.8974 31.1273C91.1241 32.4543 89.9899 33.5344 88.6269 34.2421C87.1988 34.9804 85.6106 35.3549 84.0031 35.3323C82.4071 35.3632 80.8287 34.9956 79.4105 34.2629ZM86.6057 29.6218C87.321 28.8743 87.6797 27.8049 87.6821 26.4136C87.6844 25.0223 87.3383 23.9529 86.6438 23.2053C86.3139 22.8519 85.9151 22.5698 85.472 22.3764C85.0289 22.1829 84.5509 22.0823 84.0674 22.0807C83.5839 22.0791 83.1053 22.1765 82.6609 22.3669C82.2165 22.5574 81.8158 22.8368 81.4836 23.188C80.7914 23.9264 80.4453 25.0015 80.4453 26.4136C80.4453 27.8256 80.7822 28.8951 81.4559 29.6218C81.7716 29.9831 82.1627 30.2708 82.6016 30.4645C83.0405 30.6582 83.5165 30.7534 83.9962 30.7432C84.486 30.751 84.9719 30.6549 85.4217 30.461C85.8716 30.2671 86.2751 29.9799 86.6057 29.6184V29.6218Z" fill="#181B18"/>
<path d="M104.845 30.584V35.0831H102.135C100.204 35.0831 98.6981 34.6102 97.6183 33.6642C96.5385 32.7182 95.9986 31.1873 95.9986 29.0716V22.1498H93.8805V17.7198H95.9986V13.4975H101.325V17.7198H104.814V22.1498H101.325V29.12C101.306 29.3227 101.329 29.5271 101.393 29.7202C101.458 29.9133 101.562 30.0908 101.699 30.2413C102.058 30.505 102.501 30.6281 102.945 30.5874L104.845 30.584Z" fill="#181B18"/>
</g>
</svg>
